<svg xmlns="http://www.w3.org/2000/svg" xmlns:svg="http://www.w3.org/2000/svg" id="svg2" width="744.094" height="1052.362" version="1.1"><defs id="defs4"><marker id="Arrow1Mend" orient="auto" refX="0" refY="0" style="overflow:visible"><path id="path3929" d="M 0.0,0.0 L 5.0,-5.0 L -12.5,0.0 L 5.0,5.0 L 0.0,0.0 z" style="fill-rule:evenodd;stroke:#000;stroke-width:1pt;marker-start:none" transform="scale(0.4) rotate(180) translate(10,0)"/></marker><marker id="Arrow1Mstart" orient="auto" refX="0" refY="0" style="overflow:visible"><path id="path3926" d="M 0.0,0.0 L 5.0,-5.0 L -12.5,0.0 L 5.0,5.0 L 0.0,0.0 z" style="fill-rule:evenodd;stroke:#000;stroke-width:1pt;marker-start:none" transform="scale(0.4) translate(10,0)"/></marker><marker id="Arrow1Lstart" orient="auto" refX="0" refY="0" style="overflow:visible"><path id="path3920" d="M 0.0,0.0 L 5.0,-5.0 L -12.5,0.0 L 5.0,5.0 L 0.0,0.0 z" style="fill-rule:evenodd;stroke:#000;stroke-width:1pt;marker-start:none" transform="scale(0.8) translate(12.5,0)"/></marker></defs><metadata id="metadata7"/><g id="layer1"><flowRoot id="flowRoot4260" xml:space="preserve" style="fill:#000;stroke:none;stroke-opacity:1;stroke-width:1px;stroke-linejoin:miter;stroke-linecap:butt;fill-opacity:1;font-family:Sans;font-style:normal;font-weight:400;font-size:26px;line-height:125%;letter-spacing:0;word-spacing:0"><flowRegion id="flowRegion4262"><rect id="rect4264" width="19.286" height="32.143" x="42.143" y="45.934"/></flowRegion><flowPara id="flowPara4266"/></flowRoot><rect style="fill:none;stroke:#000;stroke-width:1;stroke-miterlimit:4;stroke-opacity:1;stroke-dasharray:none" id="rect3047" width="125" height="180" x="495" y="512.362"/><rect style="fill:none;stroke:#000;stroke-width:1;stroke-miterlimit:4;stroke-opacity:1;stroke-dasharray:none" id="rect3817" width="155" height="180" x="325" y="512.362"/><rect style="fill:none;stroke:#000;stroke-width:1;stroke-miterlimit:4;stroke-opacity:1;stroke-dasharray:none" id="rect3819" width="160" height="180" x="150" y="512.362"/><text xml:space="preserve" style="font-size:12px;font-style:normal;font-variant:normal;font-weight:400;font-stretch:normal;line-height:125%;letter-spacing:0;word-spacing:0;fill:#000;fill-opacity:1;stroke:none;font-family:LMRoman12;-inkscape-font-specification:LMRoman12" id="text3821" x="191.231" y="567.362"><tspan id="tspan3823" x="191.231" y="567.362">ata_rw28_test</tspan></text><path style="fill:none;stroke:#000;stroke-width:1px;stroke-linecap:butt;stroke-linejoin:miter;stroke-opacity:1" id="path3825" d="m 155,657.36218 0,-140 150,0 0,100 -125,0 0,40 z"/><path style="fill:none;stroke:#000;stroke-width:1px;stroke-linecap:butt;stroke-linejoin:miter;stroke-opacity:1" id="path3827" d="m 185,657.36218 0,-35 120,0 0,35 z"/><text xml:space="preserve" style="font-size:12px;font-style:normal;font-variant:normal;font-weight:400;font-stretch:normal;line-height:125%;letter-spacing:0;word-spacing:0;fill:#000;fill-opacity:1;stroke:none;font-family:LMRoman12;-inkscape-font-specification:LMRoman12" id="text3829" x="195" y="637.362"><tspan id="tspan3831" x="195" y="637.362">ATA messages from</tspan><tspan id="tspan3833" x="195" y="652.362">Flounder interface</tspan></text><rect style="fill:none;stroke:#000;stroke-width:1;stroke-miterlimit:4;stroke-opacity:1;stroke-dasharray:none" id="rect3835" width="150" height="25" x="155" y="662.362"/><text xml:space="preserve" style="font-size:12px;font-style:normal;font-variant:normal;font-weight:400;font-stretch:normal;line-height:125%;letter-spacing:0;word-spacing:0;fill:#000;fill-opacity:1;stroke:none;font-family:LMRoman12;-inkscape-font-specification:LMRoman12" id="text3837" x="213.004" y="677.362"><tspan id="tspan3839" x="213.004" y="677.362">libahci</tspan></text><text xml:space="preserve" style="font-size:12px;font-style:normal;font-variant:normal;font-weight:400;font-stretch:normal;line-height:125%;letter-spacing:0;word-spacing:0;fill:#000;fill-opacity:1;stroke:none;font-family:LMRoman12;-inkscape-font-specification:LMRoman12" id="text3843" x="393.446" y="542.362"><tspan id="tspan3845" x="393.446" y="542.362">fish</tspan></text><rect style="fill:none;stroke:#000;stroke-width:1;stroke-miterlimit:4;stroke-opacity:1;stroke-dasharray:none" id="rect3847" width="145" height="25" x="330" y="557.362"/><text xml:space="preserve" style="font-size:12px;font-style:normal;font-variant:normal;font-weight:400;font-stretch:normal;line-height:125%;letter-spacing:0;word-spacing:0;fill:#000;fill-opacity:1;stroke:none;font-family:LMRoman12;-inkscape-font-specification:LMRoman12" id="text3849" x="391.22" y="572.362"><tspan id="tspan3851" x="391.22" y="572.362">VFS</tspan></text><text xml:space="preserve" style="font-size:12px;font-style:normal;font-variant:normal;font-weight:400;font-stretch:normal;line-height:125%;letter-spacing:0;word-spacing:0;fill:#000;fill-opacity:1;stroke:none;font-family:LMRoman12;-inkscape-font-specification:LMRoman12" id="text3855" x="353" y="607.362"><tspan id="tspan3857" x="353" y="607.362">FAT</tspan></text><text xml:space="preserve" style="font-size:12px;font-style:normal;font-variant:normal;font-weight:400;font-stretch:normal;line-height:125%;letter-spacing:0;word-spacing:0;fill:#000;fill-opacity:1;stroke:none;font-family:LMRoman12;-inkscape-font-specification:LMRoman12" id="text3859" x="410" y="607.362"><tspan id="tspan3861" x="410" y="607.362">blockdevfs</tspan></text><rect style="fill:none;stroke:#000;stroke-width:1;stroke-miterlimit:4;stroke-opacity:1;stroke-dasharray:none" id="rect3865" width="145" height="25" x="330" y="662.362"/><text xml:space="preserve" style="font-size:12px;font-style:normal;font-variant:normal;font-weight:400;font-stretch:normal;line-height:125%;letter-spacing:0;word-spacing:0;fill:#000;fill-opacity:1;stroke:none;font-family:LMRoman12;-inkscape-font-specification:LMRoman12" id="text3867" x="385.504" y="677.362"><tspan id="tspan3869" x="385.504" y="677.362">libahci</tspan></text><rect style="fill:none;stroke:#000;stroke-width:1;stroke-miterlimit:4;stroke-opacity:1;stroke-dasharray:none" id="rect3873" width="115" height="35" x="345" y="622.362"/><text xml:space="preserve" style="font-size:12px;font-style:normal;font-variant:normal;font-weight:400;font-stretch:normal;line-height:125%;letter-spacing:0;word-spacing:0;fill:#000;fill-opacity:1;stroke:none;font-family:LMRoman12;-inkscape-font-specification:LMRoman12" id="text3829-6" x="350" y="637.362"><tspan id="tspan3831-8" x="350" y="637.362">ATA messages from</tspan><tspan id="tspan3833-1" x="350" y="652.362">Flounder interface</tspan></text><path style="fill:none;stroke:#000;stroke-width:1px;stroke-linecap:butt;stroke-linejoin:miter;stroke-opacity:1" id="path3899" d="m 330,587.36218 0,70 10,0 0,-40 55,0 0,-30 z"/><path style="fill:none;stroke:#000;stroke-width:1px;stroke-linecap:butt;stroke-linejoin:miter;stroke-opacity:1" id="path3901" d="m 400,587.36218 0,30 65,0 0,40 10,0 0,-70 z"/><text xml:space="preserve" style="font-size:12px;font-style:normal;font-variant:normal;font-weight:400;font-stretch:normal;line-height:125%;letter-spacing:0;word-spacing:0;fill:#000;fill-opacity:1;stroke:none;font-family:LMRoman12;-inkscape-font-specification:LMRoman12" id="text3903" x="543.753" y="592.362"><tspan id="tspan3905" x="543.753" y="592.362">ahcid</tspan></text><rect style="fill:none;stroke:#000;stroke-width:1;stroke-miterlimit:4;stroke-opacity:1;stroke-dasharray:none" id="rect3909" width="145" height="35" x="330" y="517.362"/><path style="fill:none;stroke:#0006d6;stroke-width:1px;stroke-linecap:butt;stroke-linejoin:miter;stroke-opacity:1;marker-start:none;marker-end:none" id="path3911" d="m 260,677.36218 0,40 295,0 0,-40"/><path style="fill:none;stroke:#0006d6;stroke-width:1px;stroke-linecap:butt;stroke-linejoin:miter;stroke-opacity:1;marker-start:none;marker-end:none" id="path3913" d="m 435,677.36218 0,35 110,0 0,-35"/><path style="fill:none;stroke:#0006d6;stroke-width:1px;stroke-linecap:butt;stroke-linejoin:miter;stroke-opacity:1;marker-start:none;marker-end:none" id="path3915" d="m 535,677.36218 0,30 -50,0 0,-95 -20,0"/><g id="g3920-0-8" style="fill:none" transform="translate(10,665)"><path id="path3848-34-9" d="m 480,117.36218 c 0.32754,60.36019 0,60 0,60" style="fill:none;stroke:#000;stroke-width:1px;stroke-linecap:butt;stroke-linejoin:miter;stroke-opacity:1"/><path id="path3848-3-82-7" d="m 610,117.36218 c 0.32754,60.36019 0,60 0,60" style="fill:none;stroke:#000;stroke-width:1px;stroke-linecap:butt;stroke-linejoin:miter;stroke-opacity:1"/><path id="path3868-79-2" d="m 610,117.36218 c 0,8.28427 -29.10149,15 -65,15 -35.89851,0 -65,-6.71573 -65,-15 0,-8.28427 29.10149,-15 65,-15 35.89851,0 65,6.71573 65,15 z" style="fill:none;stroke:#000;stroke-opacity:1"/><path id="path3868-4-0-0" d="m 610,117.36218 c 0,8.28427 -29.10149,15 -65,15 -35.0445,0 -63.78007,-6.4111 -64.96296,-14.49369" style="fill:none;stroke:#000;stroke-opacity:1" transform="translate(0,15)"/><path id="path3868-4-7-6-3" d="m 610,117.36218 c 0,8.28427 -29.10149,15 -65,15 -35.0445,0 -63.78007,-6.4111 -64.96296,-14.49369" style="fill:none;stroke:#000;stroke-opacity:1" transform="translate(0,30)"/><path id="path3868-4-5-6-4" d="m 610,117.36218 c 0,8.28427 -29.10149,15 -65,15 -35.0445,0 -63.78007,-6.4111 -64.96296,-14.49369" style="fill:none;stroke:#000;stroke-opacity:1" transform="translate(0,45)"/><path id="path3868-4-76-8-0" d="m 610,117.36218 c 0,8.28427 -29.10149,15 -65,15 -35.0445,0 -63.78007,-6.4111 -64.96296,-14.49369" style="fill:none;stroke:#000;stroke-opacity:1" transform="translate(0,60)"/></g><text xml:space="preserve" style="font-size:12px;font-style:normal;font-variant:normal;font-weight:400;font-stretch:normal;line-height:125%;letter-spacing:0;word-spacing:0;fill:#000;fill-opacity:1;stroke:none;font-family:LMRoman12;-inkscape-font-specification:LMRoman12" id="text5146" x="422.5" y="729.862"><tspan id="tspan5148" x="422.5" y="729.862">Flounder IDC</tspan></text><path style="fill:none;stroke:#29b100;stroke-width:1px;stroke-linecap:butt;stroke-linejoin:miter;stroke-opacity:1" id="path5150" d="m 170,677.36218 0,150 310,0"/><path style="fill:none;stroke:#29b100;stroke-width:1px;stroke-linecap:butt;stroke-linejoin:miter;stroke-opacity:1" id="path5152" d="m 345,677.36218 0,145 135,0"/><text xml:space="preserve" style="font-size:12px;font-style:normal;font-variant:normal;font-weight:400;font-stretch:normal;line-height:125%;letter-spacing:0;word-spacing:0;fill:#000;fill-opacity:1;stroke:none;font-family:LMRoman12;-inkscape-font-specification:LMRoman12" id="text5154" x="315" y="842.362"><tspan id="tspan5156" x="315" y="842.362">AHCI</tspan></text><path style="fill:none;stroke:#000;stroke-width:1px;stroke-linecap:butt;stroke-linejoin:miter;stroke-opacity:1" id="path5158" d="m 575,677.36218 0,85"/><text xml:space="preserve" style="font-size:12px;font-style:normal;font-variant:normal;font-weight:400;font-stretch:normal;line-height:125%;letter-spacing:0;word-spacing:0;fill:#000;fill-opacity:1;stroke:none;font-family:LMRoman12;-inkscape-font-specification:LMRoman12" id="text5160" x="580" y="722.362"><tspan id="tspan5162" x="580" y="722.362">AHCI</tspan><tspan id="tspan5164" x="580" y="737.362">Interrupts</tspan></text></g></svg>