<svg xmlns="http://www.w3.org/2000/svg" xmlns:svg="http://www.w3.org/2000/svg" xmlns:xlink="http://www.w3.org/1999/xlink" id="svg2" width="350.707" height="142.323" version="1.1"><defs id="defs4"><marker id="Arrow1Send" orient="auto" refX="0" refY="0" style="overflow:visible"><path id="path3787" d="M 0,0 5,-5 -12.5,0 5,5 0,0 z" style="fill-rule:evenodd;stroke:#000;stroke-width:1pt;marker-start:none" transform="matrix(-0.2,0,0,-0.2,-1.2,0)"/></marker><marker id="Arrow2Lstart" orient="auto" refX="0" refY="0" style="overflow:visible"><path id="path3790" style="font-size:12px;fill-rule:evenodd;stroke-width:.625;stroke-linejoin:round" d="M 8.7185878,4.0337352 -2.2072895,0.01601326 8.7185884,-4.0017078 c -1.7454984,2.3720609 -1.7354408,5.6174519 -6e-7,8.035443 z" transform="matrix(1.1,0,0,1.1,1.1,0)"/></marker><marker id="Arrow1Mend" orient="auto" refX="0" refY="0" style="overflow:visible"><path id="path3781" d="M 0,0 5,-5 -12.5,0 5,5 0,0 z" style="fill-rule:evenodd;stroke:#000;stroke-width:1pt;marker-start:none" transform="matrix(-0.4,0,0,-0.4,-4,0)"/></marker><marker id="Arrow2Send" orient="auto" refX="0" refY="0" style="overflow:visible"><path id="path3805" style="font-size:12px;fill-rule:evenodd;stroke-width:.625;stroke-linejoin:round" d="M 8.7185878,4.0337352 -2.2072895,0.01601326 8.7185884,-4.0017078 c -1.7454984,2.3720609 -1.7354408,5.6174519 -6e-7,8.035443 z" transform="matrix(-0.3,0,0,-0.3,0.69,0)"/></marker><marker id="Arrow2Lend" orient="auto" refX="0" refY="0" style="overflow:visible"><path id="path3793" style="font-size:12px;fill-rule:evenodd;stroke-width:.625;stroke-linejoin:round" d="M 8.7185878,4.0337352 -2.2072895,0.01601326 8.7185884,-4.0017078 c -1.7454984,2.3720609 -1.7354408,5.6174519 -6e-7,8.035443 z" transform="matrix(-1.1,0,0,-1.1,-1.1,0)"/></marker><marker id="Arrow1Lend" orient="auto" refX="0" refY="0" style="overflow:visible"><path id="path3775" d="M 0,0 5,-5 -12.5,0 5,5 0,0 z" style="fill-rule:evenodd;stroke:#000;stroke-width:1pt;marker-start:none" transform="matrix(-0.8,0,0,-0.8,-10,0)"/></marker></defs><metadata id="metadata7"/><g id="layer1" transform="translate(-59.534794,-87.417526)"><text xml:space="preserve" style="font-size:12px;font-style:normal;font-variant:normal;font-weight:400;font-stretch:normal;line-height:125%;letter-spacing:0;word-spacing:0;fill:#000;fill-opacity:1;stroke:none;font-family:LMRoman12;-inkscape-font-specification:LMRoman12" id="text3755" x="104.177" y="143.73"><tspan id="tspan3757" x="104.177" y="143.73">key</tspan></text><path style="fill:none;stroke:#000;stroke-width:1px;stroke-linecap:butt;stroke-linejoin:miter;stroke-opacity:1;marker-end:url(#Arrow2Send)" id="path3759" d="m 90.034794,131.17882 c 0,0 29.513376,-0.1765 65.760936,0 36.24756,0.17649 22.89625,48.61359 49.49747,48.61359"/><path style="fill:#fff;fill-opacity:1;stroke:#000;stroke-width:.5;stroke-miterlimit:4;stroke-opacity:1;stroke-dasharray:none" id="path3761" d="m 155.56349,133.12337 c 0,4.49103 -3.6407,8.13173 -8.13173,8.13173 -4.49103,0 -8.13173,-3.6407 -8.13173,-8.13173 0,-4.49103 3.6407,-8.13173 8.13173,-8.13173 4.49103,0 8.13173,3.6407 8.13173,8.13173 z" transform="translate(0.9393398,-0.70710678)"/><text xml:space="preserve" style="font-size:12px;font-style:normal;font-variant:normal;font-weight:400;font-stretch:normal;line-height:125%;letter-spacing:0;word-spacing:0;fill:#000;fill-opacity:1;stroke:none;font-family:LMRoman12;-inkscape-font-specification:LMRoman12" id="text3763" x="114.784" y="118.274"><tspan id="tspan3765" x="114.784" y="118.274">hash function</tspan></text><rect style="fill:#fff;fill-opacity:1;stroke:#000;stroke-width:.5;stroke-miterlimit:4;stroke-opacity:1;stroke-dasharray:none" id="rect3767" width="15.556" height="101.116" x="207.182" y="108.375"/><text xml:space="preserve" style="font-size:12px;font-style:normal;font-variant:normal;font-weight:400;font-stretch:normal;line-height:125%;letter-spacing:0;word-spacing:0;fill:#000;fill-opacity:1;stroke:none;font-family:LMRoman12;-inkscape-font-specification:LMRoman12" id="text4969" x="161.099" y="174.843"><tspan id="tspan4971" x="161.099" y="174.843">hash</tspan></text><rect style="fill:#fff;fill-opacity:1;stroke:#000;stroke-width:.5;stroke-miterlimit:4;stroke-opacity:1;stroke-dasharray:none" id="rect4973" width="20.86" height="83.439" x="285.63" y="107.668"/><path style="fill:none;stroke:#000;stroke-width:1px;stroke-linecap:butt;stroke-linejoin:miter;stroke-opacity:1;marker-end:url(#Arrow2Send)" id="path4975" d="m 223.7993,179.43886 59.39696,-50.73492"/><text xml:space="preserve" style="font-size:12px;font-style:normal;font-variant:normal;font-weight:400;font-stretch:normal;line-height:125%;letter-spacing:0;word-spacing:0;fill:#000;fill-opacity:1;stroke:none;font-family:LMRoman12;-inkscape-font-specification:LMRoman12" id="text5165" x="242.891" y="175.196"><tspan id="tspan5167" x="242.891" y="175.196">index</tspan></text><path style="fill:none;stroke:#000;stroke-width:1px;stroke-linecap:butt;stroke-linejoin:miter;stroke-opacity:1;marker-mid:none;marker-end:url(#Arrow2Send)" id="path5169" d="m 308.29856,127.69875 c 33.58757,0 32.18113,50.20458 0,50.20458"/><path style="fill:none;stroke:#000;stroke-width:1px;stroke-linecap:butt;stroke-linejoin:miter;stroke-opacity:1;marker-end:url(#Arrow2Send)" id="path5743" d="m 308.65211,174.13556 c 16.26346,0 16.26346,-24.04163 0,-24.04163"/><text xml:space="preserve" style="font-size:12px;font-style:normal;font-variant:normal;font-weight:400;font-stretch:normal;line-height:125%;letter-spacing:0;word-spacing:0;fill:#000;fill-opacity:1;stroke:none;font-family:LMRoman12;-inkscape-font-specification:LMRoman12" id="text5935" x="334.815" y="141.841"><tspan id="tspan5937" x="334.815" y="141.841">collisions</tspan><tspan id="tspan5941" x="334.815" y="156.841">linked</tspan><tspan id="tspan5939" x="334.815" y="171.841">list</tspan></text><path style="fill:none;stroke:#000;stroke-width:1px;stroke-linecap:butt;stroke-linejoin:miter;stroke-opacity:1;marker-end:url(#Arrow1Send)" id="path5943" d="m 296.63129,187.21704 c 0,18.03658 -0.35355,18.38478 42.77996,18.38478"/><text xml:space="preserve" style="font-size:12px;font-style:normal;font-variant:normal;font-weight:400;font-stretch:normal;line-height:125%;letter-spacing:0;word-spacing:0;fill:#000;fill-opacity:1;stroke:none;font-family:LMRoman12;-inkscape-font-specification:LMRoman12" id="text5945" x="342.593" y="209.491"><tspan id="tspan5947" x="342.593" y="209.491">data</tspan></text><path style="fill:none;stroke:#000;stroke-width:.5;stroke-linecap:butt;stroke-linejoin:miter;stroke-miterlimit:4;stroke-opacity:1;stroke-dasharray:none" id="path6143" d="m 207.18228,111.4457 15.37958,0"/><use id="use6145" width="744.094" height="1052.362" x="0" y="0" transform="translate(0,3.4285889)" xlink:href="#path6143"/><use id="use6147" width="744.094" height="1052.362" x="0" y="0" transform="translate(0,3.4285278)" xlink:href="#use6145"/><use id="use6149" width="744.094" height="1052.362" x="0" y="0" transform="translate(0,3.4285889)" xlink:href="#use6147"/><use id="use6151" width="744.094" height="1052.362" x="0" y="0" transform="translate(0,3.4285888)" xlink:href="#use6149"/><use id="use6153" width="744.094" height="1052.362" x="0" y="0" transform="translate(0,3.4285889)" xlink:href="#use6151"/><use id="use6155" width="744.094" height="1052.362" x="0" y="0" transform="translate(0,3.4285278)" xlink:href="#use6153"/><use id="use6157" width="744.094" height="1052.362" x="0" y="0" transform="translate(0,3.4285889)" xlink:href="#use6155"/><path style="fill:none;stroke:#000;stroke-width:.5;stroke-linecap:butt;stroke-linejoin:miter;stroke-miterlimit:4;stroke-opacity:1;stroke-dasharray:none" id="path6159" d="m 285.49436,112.97082 20.85965,0"/><use id="use6161" width="744.094" height="1052.362" x="0" y="0" transform="translate(0,6)" xlink:href="#path6159"/><use id="use6163" width="744.094" height="1052.362" x="0" y="0" transform="translate(0,6)" xlink:href="#use6161"/><use id="use6165" width="744.094" height="1052.362" x="0" y="0" transform="translate(0,6)" xlink:href="#use6163"/><use id="use6167" width="744.094" height="1052.362" x="0" y="0" transform="translate(0,6)" xlink:href="#use6165"/><use id="use6169" width="744.094" height="1052.362" x="0" y="0" transform="translate(0,6)" xlink:href="#use6167"/></g></svg>