<svg xmlns="http://www.w3.org/2000/svg" xmlns:svg="http://www.w3.org/2000/svg" xmlns:xlink="http://www.w3.org/1999/xlink" id="svg2" width="744.094" height="1052.362" version="1.1"><defs id="defs4"><marker id="Arrow1Mend" orient="auto" refX="0" refY="0" style="overflow:visible"><path id="path3986" d="M 0.0,0.0 L 5.0,-5.0 L -12.5,0.0 L 5.0,5.0 L 0.0,0.0 z" style="fill-rule:evenodd;stroke:#000;stroke-width:1pt;marker-start:none" transform="scale(0.4) rotate(180) translate(10,0)"/></marker></defs><metadata id="metadata7"/><g id="layer1"><rect style="fill:none;stroke:#000;stroke-width:.625;stroke-miterlimit:4;stroke-opacity:1;stroke-dasharray:none;stroke-dashoffset:0" id="rect2818" width="30" height="30" x="25" y="67.362"/><use id="use2854" width="744.094" height="1052.362" x="0" y="0" transform="translate(30,0)" xlink:href="#rect2818"/><use id="use2856" width="744.094" height="1052.362" x="0" y="0" transform="translate(60,0)" xlink:href="#rect2818"/><use id="use2858" width="744.094" height="1052.362" x="0" y="0" transform="translate(90,0)" xlink:href="#rect2818"/><use id="use2860" width="744.094" height="1052.362" x="0" y="0" transform="translate(120,0)" xlink:href="#rect2818"/><use id="use2862" width="744.094" height="1052.362" x="0" y="0" transform="translate(150,0)" xlink:href="#rect2818"/><use id="use2864" width="744.094" height="1052.362" x="0" y="0" transform="translate(180,0)" xlink:href="#rect2818"/><use id="use2866" width="744.094" height="1052.362" x="0" y="0" transform="translate(210,0)" xlink:href="#rect2818"/><rect style="fill:none;stroke:#000;stroke-width:.625;stroke-miterlimit:4;stroke-opacity:1;stroke-dasharray:none;stroke-dashoffset:0" id="rect2818-7" width="30" height="30" x="15" y="7.362"/><path style="fill:none;stroke:#000;stroke-width:1px;stroke-linecap:butt;stroke-linejoin:miter;stroke-opacity:1;marker-mid:none;marker-end:url(#Arrow1Mend)" id="path2890" d="m 30,37.362183 10,30"/><use id="use2892" width="744.094" height="1052.362" x="0" y="0" transform="translate(55,0)" xlink:href="#rect2818-7"/><path style="fill:none;stroke:#000;stroke-width:1px;stroke-linecap:butt;stroke-linejoin:miter;stroke-opacity:1;marker-end:url(#Arrow1Mend)" id="path2896" d="M 85.105352,37.411412 70,67.362183"/><use id="use2898" width="744.094" height="1052.362" x="0" y="0" transform="translate(210,0)" xlink:href="#rect2818-7"/><use id="use2900" width="744.094" height="1052.362" x="0" y="0" transform="translate(210,-3.8281246e-7)" xlink:href="#path2890"/><text xml:space="preserve" style="font-size:12px;font-style:normal;font-variant:normal;font-weight:400;font-stretch:normal;text-align:start;line-height:125%;writing-mode:lr-tb;text-anchor:start;fill:#000;fill-opacity:1;stroke:none;font-family:LMRoman12;-inkscape-font-specification:LMRoman12" id="text2902" x="40" y="52.362"><tspan id="tspan2904" x="40" y="52.362">write</tspan></text><use id="use2906" width="744.094" height="1052.362" x="0" y="0" transform="translate(50,0)" xlink:href="#text2902"/><use id="use2908" width="744.094" height="1052.362" x="0" y="0" transform="translate(215,0)" xlink:href="#text2902"/><path style="fill:none;stroke:#000;stroke-width:1px;stroke-linecap:butt;stroke-linejoin:miter;stroke-opacity:1;marker-end:url(#Arrow1Mend)" id="path2910" d="m 45,22.362183 25,0"/><path style="fill:none;stroke:#000;stroke-width:1px;stroke-linecap:butt;stroke-linejoin:miter;stroke-opacity:1" id="path2912" d="m 100,22.362183 45,0"/><path style="fill:none;stroke:#000;stroke-width:1px;stroke-linecap:butt;stroke-linejoin:miter;stroke-opacity:1;marker-end:url(#Arrow1Mend)" id="path2914" d="m 175,22.362183 50,0"/><path style="fill:none;stroke:#000;stroke-width:1px;stroke-linecap:butt;stroke-linejoin:miter;stroke-opacity:1" id="path2916" d="m 255,22.362183 c 95,0 95,0 95,50"/><text xml:space="preserve" style="font-size:12px;font-style:normal;font-variant:normal;font-weight:400;font-stretch:normal;text-align:start;line-height:125%;writing-mode:lr-tb;text-anchor:start;fill:#000;fill-opacity:1;stroke:none;font-family:LMRoman12;-inkscape-font-specification:LMRoman12" id="text2918" x="337.87" y="85.362"><tspan id="tspan2920" x="337.87" y="85.362">close</tspan><tspan id="tspan3018" x="337.87" y="100.362">open</tspan></text><path style="fill:none;stroke:#000;stroke-width:.625;stroke-miterlimit:4;stroke-opacity:1;stroke-dasharray:none;stroke-dashoffset:0" id="path2922" d="m 370,89.862183 a 20,17.5 0 1 1 -40,0 20,17.5 0 1 1 40,0 z"/><text xml:space="preserve" style="font-size:12px;font-style:normal;font-variant:normal;font-weight:400;font-stretch:normal;text-align:start;line-height:125%;writing-mode:lr-tb;text-anchor:start;fill:#000;fill-opacity:1;stroke:none;font-family:LMRoman12;-inkscape-font-specification:LMRoman12" id="text2924" x="155" y="22.362"><tspan id="tspan2926" x="155" y="22.362">...</tspan></text><path style="fill:none;stroke:#000;stroke-width:1px;stroke-linecap:butt;stroke-linejoin:miter;stroke-opacity:1;marker-end:url(#Arrow1Mend)" id="path2928" d="m 350,107.36218 c 0,15 -4.28662,25 -20,25 -15,0 -291.990366,0 -305,0 -15,0 -19.7890473,10.0209 -20,20 -0.2109527,9.9791 4.216983,20 20,20"/><rect style="fill:none;stroke:#000;stroke-width:.625;stroke-miterlimit:4;stroke-opacity:1;stroke-dasharray:none;stroke-dashoffset:0" id="rect2818-5" width="30" height="30" x="35" y="217.362"/><use id="use2854-5" width="744.094" height="1052.362" x="0" y="0" transform="translate(30,2.6171874e-6)" xlink:href="#rect2818-5"/><use id="use2856-8" width="744.094" height="1052.362" x="0" y="0" transform="translate(60,2.6171874e-6)" xlink:href="#rect2818-5"/><use id="use2858-7" width="744.094" height="1052.362" x="0" y="0" transform="translate(90,2.6171874e-6)" xlink:href="#rect2818-5"/><use id="use2860-1" width="744.094" height="1052.362" x="0" y="0" transform="translate(120,2.6171874e-6)" xlink:href="#rect2818-5"/><use id="use2862-7" width="744.094" height="1052.362" x="0" y="0" transform="translate(150,2.6171874e-6)" xlink:href="#rect2818-5"/><use id="use2864-0" width="744.094" height="1052.362" x="0" y="0" transform="translate(180,2.6171874e-6)" xlink:href="#rect2818-5"/><use id="use2866-6" width="744.094" height="1052.362" x="0" y="0" transform="translate(210,2.6171874e-6)" xlink:href="#rect2818-5"/><rect style="fill:none;stroke:#000;stroke-width:.625;stroke-miterlimit:4;stroke-opacity:1;stroke-dasharray:none;stroke-dashoffset:0" id="rect2818-7-0" width="30" height="30" x="25" y="157.362"/><path style="fill:none;stroke:#000;stroke-width:1px;stroke-linecap:butt;stroke-linejoin:miter;stroke-opacity:1;marker-end:url(#Arrow1Mend)" id="path2890-4" d="m 50,217.36218 -10,-30"/><use id="use2892-1" width="744.094" height="1052.362" x="0" y="0" transform="translate(55,2.6171874e-6)" xlink:href="#rect2818-7-0"/><path style="fill:none;stroke:#000;stroke-width:1px;stroke-linecap:butt;stroke-linejoin:miter;stroke-opacity:1;marker-end:url(#Arrow1Mend)" id="path2896-3" d="m 80,217.36218 15,-30"/><use id="use2898-0" width="744.094" height="1052.362" x="0" y="0" transform="translate(210,2.6171874e-6)" xlink:href="#rect2818-7-0"/><use id="use2900-2" width="744.094" height="1052.362" x="0" y="0" transform="translate(210,2.6171874e-6)" xlink:href="#path2890-4"/><text xml:space="preserve" style="font-size:12px;font-style:normal;font-variant:normal;font-weight:400;font-stretch:normal;text-align:start;line-height:125%;writing-mode:lr-tb;text-anchor:start;fill:#000;fill-opacity:1;stroke:none;font-family:LMRoman12;-inkscape-font-specification:LMRoman12" id="text2902-9" x="50" y="202.362"><tspan id="tspan2904-6" x="50" y="202.362">read</tspan></text><use id="use2906-0" width="744.094" height="1052.362" x="0" y="0" transform="translate(50,2.6171874e-6)" xlink:href="#text2902-9"/><use id="use2908-9" width="744.094" height="1052.362" x="0" y="0" transform="translate(215,2.6171874e-6)" xlink:href="#text2902-9"/><path style="fill:none;stroke:#000;stroke-width:1px;stroke-linecap:butt;stroke-linejoin:miter;stroke-opacity:1;marker-end:url(#Arrow1Mend)" id="path2910-3" d="m 55,172.36218 25,0"/><path style="fill:none;stroke:#000;stroke-width:1px;stroke-linecap:butt;stroke-linejoin:miter;stroke-opacity:1" id="path2912-5" d="m 110,172.36218 45,0"/><path style="fill:none;stroke:#000;stroke-width:1px;stroke-linecap:butt;stroke-linejoin:miter;stroke-opacity:1;marker-end:url(#Arrow1Mend)" id="path2914-4" d="m 185,172.36218 50,0"/><text xml:space="preserve" style="font-size:12px;font-style:normal;font-variant:normal;font-weight:400;font-stretch:normal;text-align:start;line-height:125%;writing-mode:lr-tb;text-anchor:start;fill:#000;fill-opacity:1;stroke:none;font-family:LMRoman12;-inkscape-font-specification:LMRoman12" id="text2924-3" x="165" y="172.362"><tspan id="tspan2926-6" x="165" y="172.362">...</tspan></text></g></svg>