<svg xmlns="http://www.w3.org/2000/svg" xmlns:svg="http://www.w3.org/2000/svg" id="svg2" width="494.536" height="228.431" version="1.0"><defs id="defs4"><marker id="Arrow2Lstart" orient="auto" refX="0" refY="0" style="overflow:visible"><path id="path4413" style="font-size:12px;fill-rule:evenodd;stroke-width:.625;stroke-linejoin:round" d="M 8.7185878,4.0337352 -2.2072895,0.01601326 8.7185884,-4.0017078 c -1.7454984,2.3720609 -1.7354408,5.6174519 -6e-7,8.035443 z" transform="matrix(1.1,0,0,1.1,1.1,0)"/></marker><marker id="Arrow2Lend" orient="auto" refX="0" refY="0" style="overflow:visible"><path id="path4410" style="font-size:12px;fill-rule:evenodd;stroke-width:.625;stroke-linejoin:round" d="M 8.7185878,4.0337352 -2.2072895,0.01601326 8.7185884,-4.0017078 c -1.7454984,2.3720609 -1.7354408,5.6174519 -6e-7,8.035443 z" transform="matrix(-1.1,0,0,-1.1,-1.1,0)"/></marker><marker id="TriangleOutM" orient="auto" refX="0" refY="0" style="overflow:visible"><path id="path4330" d="m 5.77,0 -8.65,5 0,-10 8.65,5 z" style="fill-rule:evenodd;stroke:#000;stroke-width:1pt;marker-start:none" transform="scale(0.4,0.4)"/></marker></defs><metadata id="metadata7"/><g id="layer1" transform="translate(-109.59824,-182.86074)"><g id="g4125" transform="translate(-128,110)"><path style="fill:none;stroke:#000;stroke-width:1;stroke-miterlimit:4;stroke-opacity:1;stroke-dasharray:none;stroke-dashoffset:0" id="path4127" d="m 381.72381,121.07622 c 0,26.35253 -21.36295,47.71547 -47.71548,47.71547 -26.35253,0 -47.71548,-21.36294 -47.71548,-47.71547 0,-26.352533 21.36295,-47.715479 47.71548,-47.715479 26.35253,0 47.71548,21.362946 47.71548,47.715479 z"/><text xml:space="preserve" style="font-size:22px;font-style:normal;font-weight:400;text-align:center;text-anchor:middle;fill:#000;fill-opacity:1;stroke:none;font-family:Bitstream Vera Sans" id="text4129" x="333.891" y="129.666"><tspan id="tspan4131" x="333.891" y="129.666">Client</tspan></text></g><path style="fill:none;stroke:#000;stroke-width:1;stroke-miterlimit:4;stroke-opacity:1;stroke-dasharray:none;stroke-dashoffset:0" id="path4135" d="m 381.72381,121.07622 c 0,26.35253 -21.36295,47.71547 -47.71548,47.71547 -26.35253,0 -47.71548,-21.36294 -47.71548,-47.71547 0,-26.352533 21.36295,-47.715479 47.71548,-47.715479 26.35253,0 47.71548,21.362946 47.71548,47.715479 z" transform="translate(-128,242)"/><text xml:space="preserve" style="font-size:24px;font-style:normal;font-weight:400;fill:#000;fill-opacity:1;stroke:none;font-family:Bitstream Vera Sans" id="text4137" x="176.55" y="391.144"><tspan id="tspan4139" x="176.55" y="391.144">M1</tspan></text><path id="path4143" d="m 381.72381,121.07622 c 0,26.35253 -21.36295,47.71547 -47.71548,47.71547 -26.35253,0 -47.71548,-21.36294 -47.71548,-47.71547 0,-26.352533 21.36295,-47.715479 47.71548,-47.715479 26.35253,0 47.71548,21.362946 47.71548,47.715479 z" style="fill:none;stroke:#000;stroke-width:1;stroke-miterlimit:4;stroke-opacity:1;stroke-dasharray:none;stroke-dashoffset:0" transform="translate(-128,242)"/><rect style="fill:#fff9f9;fill-opacity:1;stroke:#000;stroke-width:1;stroke-miterlimit:4;stroke-opacity:1;stroke-dasharray:none;stroke-dashoffset:0" id="rect4543" width="180.619" height="71.235" x="258.269" y="196.868" ry="2.227"/><path style="fill:none;stroke:#000;stroke-width:1;stroke-miterlimit:4;stroke-opacity:1;stroke-dasharray:none;stroke-dashoffset:0" id="path4151" d="m 381.72381,121.07622 c 0,26.35253 -21.36295,47.71547 -47.71548,47.71547 -26.35253,0 -47.71548,-21.36294 -47.71548,-47.71547 0,-26.352533 21.36295,-47.715479 47.71548,-47.715479 26.35253,0 47.71548,21.362946 47.71548,47.715479 z" transform="translate(152,110)"/><text xml:space="preserve" style="font-size:20px;font-style:normal;font-weight:400;text-align:center;text-anchor:middle;fill:#000;fill-opacity:1;stroke:none;font-family:Bitstream Vera Sans" id="text4153" x="482.092" y="235.666"><tspan id="tspan4155" x="482.092" y="235.666">Server</tspan></text><path id="path4159" d="m 381.72381,121.07622 c 0,26.35253 -21.36295,47.71547 -47.71548,47.71547 -26.35253,0 -47.71548,-21.36294 -47.71548,-47.71547 0,-26.352533 21.36295,-47.715479 47.71548,-47.715479 26.35253,0 47.71548,21.362946 47.71548,47.715479 z" style="fill:none;stroke:#000;stroke-width:1;stroke-miterlimit:4;stroke-opacity:1;stroke-dasharray:none;stroke-dashoffset:0" transform="translate(152,242)"/><text id="text4161" x="483.618" y="390.776" style="font-size:24px;font-style:normal;font-weight:400;fill:#000;fill-opacity:1;stroke:none;font-family:Bitstream Vera Sans" xml:space="preserve"><tspan id="tspan4163" x="483.618" y="390.776">M2</tspan></text><rect id="rect4210" width="150.881" height="52.791" x="273.138" y="206.09" ry="6.292" style="fill:#fff;fill-opacity:1;stroke:#000;stroke-width:2.19977379;stroke-miterlimit:4;stroke-opacity:1;stroke-dasharray:none;stroke-dashoffset:0"/><text id="text4212" x="301.704" y="247.911" style="font-size:22px;font-style:normal;font-weight:400;fill:#000;fill-opacity:1;stroke:none;font-family:Bitstream Vera Sans" xml:space="preserve"><tspan style="font-size:14px;fill:#000;fill-opacity:1" id="tspan4214" x="301.704" y="247.911">shared frame</tspan></text><path id="path4444" d="m 511.03595,262.2206 c 6.00615,34.70216 -8.67554,75.41047 -8.67554,75.41047" style="fill:none;stroke:#000;stroke-width:1px;stroke-linecap:butt;stroke-linejoin:miter;stroke-opacity:1;marker-mid:none;marker-end:url(#Arrow2Lend)"/><path style="fill:none;stroke:#000;stroke-width:1px;stroke-linecap:butt;stroke-linejoin:miter;stroke-opacity:1;marker-start:url(#Arrow2Lstart);marker-end:none" id="path4446" d="m 493.03595,262.2206 c 6.00615,34.70216 -8.67554,75.41047 -8.67554,75.41047"/><path style="fill:none;stroke:#000;stroke-width:1px;stroke-linecap:butt;stroke-linejoin:miter;stroke-opacity:1;marker-end:url(#Arrow2Lend)" id="path4448" d="m 243.38846,349.15403 c 213.70475,0 213.70475,0 213.70475,0"/><path id="path4452" d="m 447.92123,373.15403 c -213.70475,0 -213.70475,0 -213.70475,0" style="fill:none;stroke:#000;stroke-width:1px;stroke-linecap:butt;stroke-linejoin:miter;stroke-opacity:1;marker-end:url(#Arrow2Lend)"/><path style="fill:none;stroke:#000;stroke-width:1px;stroke-linecap:butt;stroke-linejoin:miter;stroke-opacity:1;marker-end:url(#Arrow2Lend)" id="path4454" d="m 220.85007,269.40204 c 0,65.49561 0,65.49561 0,65.49561"/><path id="path4456" d="m 194.5381,324.06328 c 0,-65.49561 0,-65.49561 0,-65.49561" style="fill:none;stroke:#000;stroke-width:1px;stroke-linecap:butt;stroke-linejoin:miter;stroke-opacity:1;marker-end:url(#Arrow2Lend)"/><g id="g4474" transform="translate(-2.67089,169.21332)"><path id="path4460" d="m 231.26027,105.20789 c 0,3.82233 -3.09861,6.92093 -6.92093,6.92093 -3.82232,0 -6.92093,-3.0986 -6.92093,-6.92093 0,-3.82232 3.09861,-6.920925 6.92093,-6.920925 3.82232,0 6.92093,3.098605 6.92093,6.920925 z" transform="translate(0,-9.970612)" style="fill:#000;fill-opacity:1;stroke:#000;stroke-width:1;stroke-miterlimit:4;stroke-opacity:1;stroke-dasharray:none;stroke-dashoffset:0"/><text id="text4462" x="224.791" y="99.55" style="font-size:12px;font-style:normal;font-weight:400;text-align:center;line-height:125%;writing-mode:lr-tb;text-anchor:middle;fill:#fff9f9;fill-opacity:1;stroke:none;font-family:Bitstream Vera Sans" xml:space="preserve"><tspan id="tspan4464" x="224.791" y="99.55">1</tspan></text></g><g id="g4483" transform="translate(-29.448652,233.91417)"><path style="fill:#000;fill-opacity:1;stroke:#000;stroke-width:1;stroke-miterlimit:4;stroke-opacity:1;stroke-dasharray:none;stroke-dashoffset:0" id="path4485" d="m 231.26027,105.20789 c 0,3.82233 -3.09861,6.92093 -6.92093,6.92093 -3.82232,0 -6.92093,-3.0986 -6.92093,-6.92093 0,-3.82232 3.09861,-6.920925 6.92093,-6.920925 3.82232,0 6.92093,3.098605 6.92093,6.920925 z" transform="translate(0,-9.970612)"/><text xml:space="preserve" style="font-size:12px;font-style:normal;font-weight:400;text-align:center;line-height:125%;writing-mode:lr-tb;text-anchor:middle;fill:#fff9f9;fill-opacity:1;stroke:none;font-family:Bitstream Vera Sans" id="text4487" x="224.791" y="99.55"><tspan id="tspan4489" x="224.791" y="99.55">6</tspan></text></g><g id="g4491" transform="translate(14.551348,253.91417)"><path id="path4493" d="m 231.26027,105.20789 c 0,3.82233 -3.09861,6.92093 -6.92093,6.92093 -3.82232,0 -6.92093,-3.0986 -6.92093,-6.92093 0,-3.82232 3.09861,-6.920925 6.92093,-6.920925 3.82232,0 6.92093,3.098605 6.92093,6.920925 z" transform="translate(0,-9.970612)" style="fill:#000;fill-opacity:1;stroke:#000;stroke-width:1;stroke-miterlimit:4;stroke-opacity:1;stroke-dasharray:none;stroke-dashoffset:0"/><text id="text4495" x="224.791" y="99.55" style="font-size:12px;font-style:normal;font-weight:400;text-align:center;line-height:125%;writing-mode:lr-tb;text-anchor:middle;fill:#fff9f9;fill-opacity:1;stroke:none;font-family:Bitstream Vera Sans" xml:space="preserve"><tspan id="tspan4497" x="224.791" y="99.55">2</tspan></text></g><g id="g4499" transform="translate(260.55135,235.91417)"><path style="fill:#000;fill-opacity:1;stroke:#000;stroke-width:1;stroke-miterlimit:4;stroke-opacity:1;stroke-dasharray:none;stroke-dashoffset:0" id="path4501" d="m 231.26027,105.20789 c 0,3.82233 -3.09861,6.92093 -6.92093,6.92093 -3.82232,0 -6.92093,-3.0986 -6.92093,-6.92093 0,-3.82232 3.09861,-6.920925 6.92093,-6.920925 3.82232,0 6.92093,3.098605 6.92093,6.920925 z" transform="translate(0,-9.970612)"/><text xml:space="preserve" style="font-size:12px;font-style:normal;font-weight:400;text-align:center;line-height:125%;writing-mode:lr-tb;text-anchor:middle;fill:#fff9f9;fill-opacity:1;stroke:none;font-family:Bitstream Vera Sans" id="text4503" x="224.791" y="99.55"><tspan id="tspan4505" x="224.791" y="99.55">3</tspan></text></g><g id="g4507" transform="translate(286.55135,165.91417)"><path id="path4509" d="m 231.26027,105.20789 c 0,3.82233 -3.09861,6.92093 -6.92093,6.92093 -3.82232,0 -6.92093,-3.0986 -6.92093,-6.92093 0,-3.82232 3.09861,-6.920925 6.92093,-6.920925 3.82232,0 6.92093,3.098605 6.92093,6.920925 z" transform="translate(0,-9.970612)" style="fill:#000;fill-opacity:1;stroke:#000;stroke-width:1;stroke-miterlimit:4;stroke-opacity:1;stroke-dasharray:none;stroke-dashoffset:0"/><text id="text4511" x="224.791" y="99.55" style="font-size:12px;font-style:normal;font-weight:400;text-align:center;line-height:125%;writing-mode:lr-tb;text-anchor:middle;fill:#fff9f9;fill-opacity:1;stroke:none;font-family:Bitstream Vera Sans" xml:space="preserve"><tspan id="tspan4513" x="224.791" y="99.55">4</tspan></text></g><g id="g4515" transform="translate(228.55135,277.91417)"><path style="fill:#000;fill-opacity:1;stroke:#000;stroke-width:1;stroke-miterlimit:4;stroke-opacity:1;stroke-dasharray:none;stroke-dashoffset:0" id="path4517" d="m 231.26027,105.20789 c 0,3.82233 -3.09861,6.92093 -6.92093,6.92093 -3.82232,0 -6.92093,-3.0986 -6.92093,-6.92093 0,-3.82232 3.09861,-6.920925 6.92093,-6.920925 3.82232,0 6.92093,3.098605 6.92093,6.920925 z" transform="translate(0,-9.970612)"/><text xml:space="preserve" style="font-size:12px;font-style:normal;font-weight:400;text-align:center;line-height:125%;writing-mode:lr-tb;text-anchor:middle;fill:#fff9f9;fill-opacity:1;stroke:none;font-family:Bitstream Vera Sans" id="text4519" x="224.791" y="99.55"><tspan id="tspan4521" x="224.791" y="99.55">5</tspan></text></g><path style="fill:#fff9f9;fill-opacity:1;stroke:#000;stroke-width:1;stroke-miterlimit:4;stroke-opacity:1;stroke-dasharray:1,1;stroke-dashoffset:0" id="path4527" d="m 262.99526,230.9662 c 0,10.81438 -3.92994,19.58116 -8.77776,19.58116 -4.84783,0 -8.77776,-8.76678 -8.77776,-19.58116 0,-10.81438 3.92993,-19.58116 8.77776,-19.58116 4.84782,0 8.77776,8.76678 8.77776,19.58116 z"/><path id="path4529" d="m 262.99526,230.9662 a 8.7777624,19.581161 0 1 1 -17.55552,0 8.7777624,19.581161 0 1 1 17.55552,0 z" style="fill:#fff9f9;fill-opacity:1;stroke:#000;stroke-width:1;stroke-miterlimit:4;stroke-opacity:1;stroke-dasharray:1,1;stroke-dashoffset:0" transform="matrix(-1,0,0,1,694.435,0)"/><path style="fill:none;stroke:#000;stroke-width:1.20000005;stroke-linecap:butt;stroke-linejoin:miter;stroke-miterlimit:4;stroke-opacity:1;stroke-dasharray:none;marker-start:url(#Arrow2Lstart);marker-end:url(#Arrow2Lend)" id="path4533" d="m 254.89271,230.96621 c 186.35864,0 186.35864,0 186.35864,0"/><text id="text4571" x="222.015" y="286.874" style="font-size:22px;font-style:normal;font-weight:400;fill:#000;fill-opacity:1;stroke:none;font-family:Bitstream Vera Sans" xml:space="preserve"><tspan style="font-size:8px" id="tspan4573" x="222.015" y="286.874">bind_client_request(iref, frame)</tspan></text><text xml:space="preserve" style="font-size:22px;font-style:normal;font-weight:400;fill:#000;fill-opacity:1;stroke:none;font-family:Bitstream Vera Sans" id="text4575" x="285.338" y="344.436"><tspan id="tspan4577" x="285.338" y="344.436" style="font-size:8px">remote_bind_request(iref, frame)</tspan></text><text id="text4579" x="376.205" y="312.01" style="font-size:22px;font-style:normal;font-weight:400;fill:#000;fill-opacity:1;stroke:none;font-family:Bitstream Vera Sans" xml:space="preserve"><tspan style="font-size:8px" id="tspan4581" x="376.205" y="312.01">bind_service_request(frame)</tspan></text><text xml:space="preserve" style="font-size:22px;font-style:normal;font-weight:400;fill:#000;fill-opacity:1;stroke:none;font-family:Bitstream Vera Sans" id="text4583" x="108.872" y="314.41"><tspan x="108.872" y="314.41" style="font-size:8px" id="tspan5240">bind_client_reply(err)</tspan></text><text id="text4587" x="305.784" y="382.436" style="font-size:22px;font-style:normal;font-weight:400;fill:#000;fill-opacity:1;stroke:none;font-family:Bitstream Vera Sans" xml:space="preserve"><tspan style="font-size:8px" id="tspan4589" x="305.784" y="382.436">remote_bind_reply(err)</tspan></text><text id="text4591" x="512.997" y="279.064" style="font-size:22px;font-style:normal;font-weight:400;fill:#000;fill-opacity:1;stroke:none;font-family:Bitstream Vera Sans" xml:space="preserve"><tspan style="font-size:8px" id="tspan4593" x="512.997" y="279.064">bind_service_reply(err)</tspan></text><path style="fill:none;stroke:#000;stroke-width:1;stroke-linecap:butt;stroke-linejoin:miter;stroke-miterlimit:4;stroke-opacity:1;stroke-dasharray:1,1;stroke-dashoffset:0;marker-mid:url(#TriangleOutM)" id="path2268" d="m 310.90661,287.95565 c 18.74259,0 25.35763,-12.49507 25.35763,-12.49507" transform="translate(147.04013,60.860741)"/><path style="fill:none;stroke:#000;stroke-width:1;stroke-linecap:butt;stroke-linejoin:miter;stroke-miterlimit:4;stroke-opacity:1;stroke-dasharray:1,1;stroke-dashoffset:0;marker-mid:url(#TriangleOutM);marker-end:none" id="path3242" d="m 457.98926,348.93636 c 15.43508,0 15.80258,11.39256 15.80258,11.39256 0,0 1.10251,13.59757 -12.49506,13.59757"/><path style="fill:none;stroke:#000;stroke-width:1;stroke-linecap:butt;stroke-linejoin:miter;stroke-miterlimit:4;stroke-opacity:1;stroke-dasharray:1,1;stroke-dashoffset:0;marker-mid:url(#TriangleOutM)" id="path3249" d="m 73.50038,270.68306 c -0.367502,22.78512 12.127563,18.37509 12.127563,18.37509" transform="translate(147.04013,60.860741)"/><path style="fill:none;stroke:#000;stroke-width:1;stroke-linecap:butt;stroke-linejoin:miter;stroke-miterlimit:4;stroke-opacity:1;stroke-dasharray:1,1;stroke-dashoffset:0;marker-mid:url(#TriangleOutM)" id="path3251" d="m 73.867882,266.27303 c -0.367502,15.06758 -6.982536,21.68261 -13.59757,21.68261 -11.392559,0 -11.760061,-16.90508 -11.760061,-16.90508" transform="translate(147.04013,60.860741)"/><path style="fill:none;stroke:#000;stroke-width:1;stroke-linecap:butt;stroke-linejoin:miter;stroke-miterlimit:4;stroke-opacity:1;stroke-dasharray:1,1;stroke-dashoffset:0" id="path3253" d="m 346.18679,204.53272 c -1.47,-10.65756 0,-15.06758 4.77753,-16.90509 4.77752,-1.83751 11.02505,6.98253 11.02505,6.98253" transform="translate(147.04013,60.860741)"/><path style="fill:none;stroke:#000;stroke-width:1;stroke-linecap:butt;stroke-linejoin:miter;stroke-miterlimit:4;stroke-opacity:1;stroke-dasharray:1,1;stroke-dashoffset:0;marker-mid:url(#TriangleOutM)" id="path3255" d="m 356.84434,272.15306 c -5.88002,16.17009 -7.25816,21.77449 -18.00759,31.97267 -10.74943,10.19818 -24.99013,8.82005 -24.99013,8.82005" transform="translate(147.04013,60.860741)"/><path style="fill:none;stroke:#000;stroke-width:1;stroke-linecap:butt;stroke-linejoin:miter;stroke-miterlimit:4;stroke-opacity:1;stroke-dasharray:1,1;stroke-dashoffset:0;marker-mid:url(#TriangleOutM)" id="path3263" d="m 90.772969,311.84327 c -28.665148,0.735 -30.135156,-6.61503 -34.91268,-11.76006 -4.777525,-5.14503 -7.350038,-25.72513 -7.350038,-25.72513" transform="translate(147.04013,60.860741)"/></g></svg>